<svg version="1.1" xmlns="http://www.w3.org/2000/svg" xmlns:xlink="http://www.w3.org/1999/xlink" x="0px" y="0px"
                width="786.7px" height="442.5px" viewBox="0 0 786.7 442.5" style="enable-background:new 0 0 786.7 442.5;"
                xml:space="preserve">
                <style type="text/css">
                    .st0-web {
                        fill: #E6E6E6;
                    }

                    .st1-web {
                        fill: #222222;
                    }

                    .st2-web {
                        fill: #CCCCCC;
                    }

                    .st3-web {
                        fill: #FFFFFF;
                    }

                    .st4-web {
                        fill: #C7C7C7;
                    }

                    .st5-web {
                        opacity: 0.32;
                        fill: #272727;
                    }
                </style>
                <defs>
                </defs>
                <path id="Desktop_1_" class="st0-web" d="M786.7,13v416.6c0,7.1-5.8,13-13,13H13c-7.1,0-13-5.8-13-13V13C0,5.8,5.8,0,13,0h760.8
            C780.9,0,786.7,5.8,786.7,13z" />
                <g id="Navbar_1_">
                    <path id="Navbar-Bg_1_" class="st1-web"
                        d="M786.7,13v33.6H0V13C0,5.8,5.8,0,13,0h760.8C780.9,0,786.7,5.8,786.7,13z" />
                    <g id="Navbar-Link_1_">
                        <path class="st0-web" d="M145.7,38.5h-109c-8.2,0-15-6.7-15-15v0c0-8.2,6.7-15,15-15h109c8.2,0,15,6.7,15,15v0
                C160.7,31.8,153.9,38.5,145.7,38.5z" />
                        <path class="st0-web" d="M733.2,38.5h-47.1c-7.4,0-13.5-6.1-13.5-13.5V22c0-7.4,6.1-13.5,13.5-13.5h47.1c7.4,0,13.5,6.1,13.5,13.5v3.1
                C746.7,32.5,740.6,38.5,733.2,38.5z" />
                        <path class="st0-web" d="M542.2,38.5h-47.1c-7.4,0-13.5-6.1-13.5-13.5V22c0-7.4,6.1-13.5,13.5-13.5h47.1c7.4,0,13.5,6.1,13.5,13.5v3.1
                C555.7,32.5,549.6,38.5,542.2,38.5z" />
                        <path class="st0-web" d="M637.7,38.5h-47.1c-7.4,0-13.5-6.1-13.5-13.5V22c0-7.4,6.1-13.5,13.5-13.5h47.1c7.4,0,13.5,6.1,13.5,13.5v3.1
                C651.2,32.5,645.1,38.5,637.7,38.5z" />
                    </g>
                </g>

                <g id="Content_1_">
                    <path class="st2-web" d="M660.7,116.5h-202c-10.4,0-19-8.5-19-19v0c0-10.4,8.5-19,19-19h202c10.5,0,19,8.5,19,19v0C679.7,108,671.1,116.5,660.7,116.5z" >
                        <animateTransform attributeType="xml" attributeName="transform" begin="XMountain_1_.begin" type="translate" dur="4s" values="-300,0; 0,0; 0,0; 0,0; -300,0" repeatCount="indefinite" />
                        <animate attributeName="fill" values="#E6E6E6;#CCCCCC;#CCCCCC;#CCCCCC;#E6E6E6" dur="4s" repeatCount="indefinite" />  
                    </path>
                    <path class="st2-web" d="M563.5,162.5H459.9c-6.1,0-11.2-5-11.2-11.2v-2.7c0-6.1,5-11.2,11.2-11.2h103.7c6.1,0,11.2,5,11.2,11.2v2.7
            C574.7,157.5,569.7,162.5,563.5,162.5z" >
                        <animateTransform attributeType="xml" attributeName="transform" begin="XMountain_1_.begin" type="translate" dur="4s" values="-200,0; 0,0; 0,0; 0,0; -200,0" repeatCount="indefinite" />
                        <animate attributeName="fill" values="#E6E6E6;#CCCCCC;#CCCCCC;#CCCCCC;#E6E6E6" dur="4s" repeatCount="indefinite" />  
                    </path>
                    <path class="st2-web" d="M715.3,367.5H463.1c-10.1,0-18.4-8.3-18.4-18.4V207c0-10.1,8.3-18.4,18.4-18.4h252.1
            c10.1,0,18.4,8.3,18.4,18.4v142.1C733.7,359.2,725.4,367.5,715.3,367.5z" >
                        <animateTransform attributeType="xml" attributeName="transform" begin="XMountain_1_.begin" type="translate" dur="4s" values="-400,0; 0,0; 0,0; 0,0; -400,0" repeatCount="indefinite" />
                        <animate attributeName="fill" values="#E6E6E6;#CCCCCC;#CCCCCC;#CCCCCC;#E6E6E6" dur="4s" repeatCount="indefinite" />  
                    </path>
                    <path class="st2-web" d="M559.5,409.5H455.9c-6.1,0-11.2-5-11.2-11.2v-2.7c0-6.1,5-11.2,11.2-11.2h103.7c6.1,0,11.2,5,11.2,11.2v2.7
            C570.7,404.5,565.7,409.5,559.5,409.5z" >
                        <animateTransform attributeType="xml" attributeName="transform" begin="XMountain_1_.begin" type="translate" dur="4s" values="-200,0; 0,0; 0,0; 0,0; -200,0" repeatCount="indefinite" />
                        <animate attributeName="fill" values="#E6E6E6;#CCCCCC;#CCCCCC;#CCCCCC;#E6E6E6" dur="4s" repeatCount="indefinite" />  
                    </path>
                </g>

                <g id="Post-UI_1_">
                    <path class="st3-web" d="M418.7,91.4v305.3c0,7.1-5.8,12.8-12.8,12.8H52.5c-7.1,0-12.8-5.8-12.8-12.8V91.4c0-7.1,5.8-12.8,12.8-12.8
            h353.3C412.9,78.5,418.7,84.3,418.7,91.4z" />
                    <path id="Post_1_" class="st4-web"
                        d="M418.7,358.5v37.9c0,7.2-5.8,13.1-12.8,13.1H52.5c-7.1,0-12.8-5.9-12.8-13.1v-37.9H418.7z" />
                    <path id="Post-name_1_" class="st0-web" d="M324.2,397.5h-250c-6.9,0-12.5-5.6-12.5-12.5l0,0c0-6.9,5.6-12.5,12.5-12.5h250
            c6.9,0,12.5,5.6,12.5,12.5l0,0C336.7,391.9,331.1,397.5,324.2,397.5z" />
                    <path id="post-like_1_" class="st1-web"
                        d="M394.9,371.8L394.9,371.8c-3.7-3.7-9.7-3.7-13.4,0l-0.8,0.8l-0.8-0.8
            c-3.7-3.7-9.7-3.7-13.4,0l0,0c-3.7,3.7-3.7,9.7,0,13.4l0.8,0.8l13.4,13.4l13.4-13.4l0.8-0.8C398.6,381.5,398.6,375.5,394.9,371.8z" >
                    <animate attributeName="fill" values="#777;#111" dur="5s" repeatCount="indefinite" begin="3s"/></path>
                </g>


                
                <circle id="sun_1_" class="st5-web" cx="221.2" cy="173" r="37.5" >
                    <animateTransform id="Xsun_1_" attributeType="xml" attributeName="transform" begin="XMountain_1_.begin" type="translate" dur="5s" values="0,100;0,0;0,0;0,100;0,100;" repeatCount="indefinite" />
                </circle>

                <polygon id="Mountain_1_" class="st1-web" points="305.7,202.5 219.6,289.2 143.5,218 39.7,315.1 39.7,358.5 150.7,358.5 293.7,358.5 
            418.7,358.5 418.7,316.3 " >
                <animate id="XMountain_1_" attributeName="fill" values="#222;#444;#444;#222;#222;" dur="5s" repeatCount="indefinite" />  
        </polygon>


            </svg>